# xmcd
#
# Track frame offsets: 
#        150
#        17039
#        29802
#        45192
#        53644
#        65729
#        78847
#        91789
#        103757
#        119117
#        142167
#        164227
#
# Disc length: 2363 seconds
#
# Revision: 0
# Processed by: cddbd v1.5.2PL0 Copyright (c) Steve Scherf et al.
# Submitted via: ExactAudioCopy v1.0b3
#
DISCID=a909390c
DTITLE=Various Artist - Coffee Break Brazil - Premium Blend Disc2
DYEAR=2014
DGENRE=Latin
TTITLE0=Joyce - Feminina
TTITLE1=Chico Buarque - Feijoada Completa
TTITLE2=Toquinho - Turbihao (Guitar Solo)
TTITLE3=Nara Leao - Carcara
TTITLE4=Gilberto Gil - Roda
TTITLE5=Luiz Henrique - Vivo Sonhando (Dreamer)
TTITLE6=Doris Monteiro - Maita
TTITLE7=Alaide Costa - Catavento
TTITLE8=Marcos Valle - Flamengo Ate Morrer
TTITLE9=Vinicius Cantuaria - Amor Brasileiro
TTITLE10=Celso Fonseca - Samba E Tudo
TTITLE11=Erasmo Carlos - Grilos
EXTD=
EXTT0=
EXTT1=
EXTT2=
EXTT3=
EXTT4=
EXTT5=
EXTT6=
EXTT7=
EXTT8=
EXTT9=
EXTT10=
EXTT11=
PLAYORDER=
